<mxfile host="app.diagrams.net" modified="2024-07-23T09:17:28.684Z" agent="Mozilla/5.0 (Windows NT 10.0; Win64; x64) AppleWebKit/537.36 (KHTML, like Gecko) Chrome/126.0.0.0 Safari/537.36" etag="Y0laIlvVXFEjbT55D4Ti" version="24.7.3" type="device">
  <diagram name="Page-1" id="_lhvb5Gt0Rp0IyFUDERJ">
    <mxGraphModel dx="880" dy="1534" grid="1" gridSize="10" guides="1" tooltips="1" connect="1" arrows="1" fold="1" page="1" pageScale="1" pageWidth="850" pageHeight="1100" math="0" shadow="0">
      <root>
        <mxCell id="0" />
        <mxCell id="1" parent="0" />
        <mxCell id="Ow_2O81sL5NtDQHL0vKZ-1" value="Khách" style="rounded=0;whiteSpace=wrap;html=1;" parent="1" vertex="1">
          <mxGeometry x="150" y="160" width="120" height="60" as="geometry" />
        </mxCell>
        <mxCell id="Ow_2O81sL5NtDQHL0vKZ-42" style="edgeStyle=orthogonalEdgeStyle;rounded=0;orthogonalLoop=1;jettySize=auto;html=1;entryX=-0.014;entryY=0.394;entryDx=0;entryDy=0;entryPerimeter=0;" parent="1" source="Ow_2O81sL5NtDQHL0vKZ-2" target="Ow_2O81sL5NtDQHL0vKZ-41" edge="1">
          <mxGeometry relative="1" as="geometry">
            <mxPoint x="580" y="50" as="targetPoint" />
            <Array as="points">
              <mxPoint x="415" y="80" />
              <mxPoint x="580" y="80" />
              <mxPoint x="580" y="52" />
              <mxPoint x="590" y="52" />
            </Array>
          </mxGeometry>
        </mxCell>
        <mxCell id="Ow_2O81sL5NtDQHL0vKZ-2" value="1.2" style="swimlane;fontStyle=0;childLayout=stackLayout;horizontal=1;startSize=20;fillColor=#ffffff;horizontalStack=0;resizeParent=1;resizeParentMax=0;resizeLast=0;collapsible=0;marginBottom=0;swimlaneFillColor=#ffffff;rounded=1;" parent="1" vertex="1">
          <mxGeometry x="330" y="100" width="170" height="50" as="geometry" />
        </mxCell>
        <mxCell id="Ow_2O81sL5NtDQHL0vKZ-12" value="Tạo báo cáo tài chính" style="text;html=1;align=center;verticalAlign=middle;whiteSpace=wrap;rounded=0;" parent="Ow_2O81sL5NtDQHL0vKZ-2" vertex="1">
          <mxGeometry y="20" width="170" height="30" as="geometry" />
        </mxCell>
        <mxCell id="Ow_2O81sL5NtDQHL0vKZ-51" style="edgeStyle=orthogonalEdgeStyle;rounded=0;orthogonalLoop=1;jettySize=auto;html=1;exitX=1;exitY=0.25;exitDx=0;exitDy=0;entryX=0.833;entryY=0;entryDx=0;entryDy=0;entryPerimeter=0;" parent="1" source="Ow_2O81sL5NtDQHL0vKZ-5" target="Ow_2O81sL5NtDQHL0vKZ-44" edge="1">
          <mxGeometry relative="1" as="geometry">
            <mxPoint x="690" y="15" as="targetPoint" />
            <Array as="points">
              <mxPoint x="690" y="3" />
            </Array>
          </mxGeometry>
        </mxCell>
        <mxCell id="Ow_2O81sL5NtDQHL0vKZ-53" style="edgeStyle=orthogonalEdgeStyle;rounded=0;orthogonalLoop=1;jettySize=auto;html=1;exitX=0.5;exitY=0;exitDx=0;exitDy=0;" parent="1" source="Ow_2O81sL5NtDQHL0vKZ-5" edge="1">
          <mxGeometry relative="1" as="geometry">
            <mxPoint x="600" y="-60" as="targetPoint" />
            <Array as="points">
              <mxPoint x="390" y="-60" />
            </Array>
          </mxGeometry>
        </mxCell>
        <mxCell id="Ow_2O81sL5NtDQHL0vKZ-5" value="1.1" style="swimlane;fontStyle=0;childLayout=stackLayout;horizontal=1;startSize=20;fillColor=#ffffff;horizontalStack=0;resizeParent=1;resizeParentMax=0;resizeLast=0;collapsible=0;marginBottom=0;swimlaneFillColor=#ffffff;rounded=1;" parent="1" vertex="1">
          <mxGeometry x="340" y="-10" width="100" height="50" as="geometry" />
        </mxCell>
        <mxCell id="Ow_2O81sL5NtDQHL0vKZ-7" value="Theo dõi doanh thu và chi phí" style="text;html=1;align=center;verticalAlign=middle;whiteSpace=wrap;rounded=0;" parent="Ow_2O81sL5NtDQHL0vKZ-5" vertex="1">
          <mxGeometry y="20" width="100" height="30" as="geometry" />
        </mxCell>
        <mxCell id="Ow_2O81sL5NtDQHL0vKZ-30" style="edgeStyle=orthogonalEdgeStyle;rounded=0;orthogonalLoop=1;jettySize=auto;html=1;entryX=0.25;entryY=1;entryDx=0;entryDy=0;" parent="1" source="Ow_2O81sL5NtDQHL0vKZ-13" target="Ow_2O81sL5NtDQHL0vKZ-21" edge="1">
          <mxGeometry relative="1" as="geometry">
            <mxPoint x="600" y="209" as="targetPoint" />
            <Array as="points">
              <mxPoint x="405" y="220" />
              <mxPoint x="665" y="220" />
            </Array>
          </mxGeometry>
        </mxCell>
        <mxCell id="Ow_2O81sL5NtDQHL0vKZ-13" value="1.3" style="swimlane;fontStyle=0;childLayout=stackLayout;horizontal=1;startSize=20;fillColor=#ffffff;horizontalStack=0;resizeParent=1;resizeParentMax=0;resizeLast=0;collapsible=0;marginBottom=0;swimlaneFillColor=#ffffff;rounded=1;" parent="1" vertex="1">
          <mxGeometry x="330" y="270" width="150" height="50" as="geometry" />
        </mxCell>
        <mxCell id="Ow_2O81sL5NtDQHL0vKZ-14" value="Lập phiếu thu tiền" style="text;html=1;align=center;verticalAlign=middle;whiteSpace=wrap;rounded=0;" parent="Ow_2O81sL5NtDQHL0vKZ-13" vertex="1">
          <mxGeometry y="20" width="150" height="30" as="geometry" />
        </mxCell>
        <mxCell id="Ow_2O81sL5NtDQHL0vKZ-16" value="e" style="html=1;dashed=0;whiteSpace=wrap;shape=mxgraph.dfd.dataStoreID;align=left;spacingLeft=3;points=[[0,0],[0.5,0],[1,0],[0,0.5],[1,0.5],[0,1],[0.5,1],[1,1]];" parent="1" vertex="1">
          <mxGeometry x="610" y="-70" width="100" height="30" as="geometry" />
        </mxCell>
        <mxCell id="Ow_2O81sL5NtDQHL0vKZ-39" style="edgeStyle=orthogonalEdgeStyle;rounded=0;orthogonalLoop=1;jettySize=auto;html=1;entryX=0.25;entryY=1;entryDx=0;entryDy=0;" parent="1" source="Ow_2O81sL5NtDQHL0vKZ-17" target="Ow_2O81sL5NtDQHL0vKZ-12" edge="1">
          <mxGeometry relative="1" as="geometry">
            <mxPoint x="370" y="185" as="targetPoint" />
          </mxGeometry>
        </mxCell>
        <mxCell id="G4VcKfkMpB8U3CiZaw-z-3" style="edgeStyle=orthogonalEdgeStyle;rounded=0;orthogonalLoop=1;jettySize=auto;html=1;entryX=0.5;entryY=1;entryDx=0;entryDy=0;" edge="1" parent="1" source="Ow_2O81sL5NtDQHL0vKZ-17" target="Ow_2O81sL5NtDQHL0vKZ-7">
          <mxGeometry relative="1" as="geometry">
            <Array as="points">
              <mxPoint x="670" y="110" />
              <mxPoint x="540" y="110" />
              <mxPoint x="540" y="50" />
              <mxPoint x="390" y="50" />
            </Array>
          </mxGeometry>
        </mxCell>
        <mxCell id="Ow_2O81sL5NtDQHL0vKZ-17" value="d" style="html=1;dashed=0;whiteSpace=wrap;shape=mxgraph.dfd.dataStoreID;align=left;spacingLeft=3;points=[[0,0],[0.5,0],[1,0],[0,0.5],[1,0.5],[0,1],[0.5,1],[1,1]];" parent="1" vertex="1">
          <mxGeometry x="620" y="170" width="100" height="30" as="geometry" />
        </mxCell>
        <mxCell id="G4VcKfkMpB8U3CiZaw-z-5" style="edgeStyle=orthogonalEdgeStyle;rounded=0;orthogonalLoop=1;jettySize=auto;html=1;entryX=1;entryY=0.25;entryDx=0;entryDy=0;" edge="1" parent="1" source="Ow_2O81sL5NtDQHL0vKZ-18" target="Ow_2O81sL5NtDQHL0vKZ-14">
          <mxGeometry relative="1" as="geometry">
            <Array as="points">
              <mxPoint x="660" y="298" />
              <mxPoint x="545" y="298" />
            </Array>
          </mxGeometry>
        </mxCell>
        <mxCell id="Ow_2O81sL5NtDQHL0vKZ-18" value="c" style="html=1;dashed=0;whiteSpace=wrap;shape=mxgraph.dfd.dataStoreID;align=left;spacingLeft=3;points=[[0,0],[0.5,0],[1,0],[0,0.5],[1,0.5],[0,1],[0.5,1],[1,1]];" parent="1" vertex="1">
          <mxGeometry x="610" y="250" width="100" height="30" as="geometry" />
        </mxCell>
        <mxCell id="Ow_2O81sL5NtDQHL0vKZ-20" value="Danh sách hợp đồng" style="text;html=1;align=center;verticalAlign=middle;whiteSpace=wrap;rounded=0;" parent="1" vertex="1">
          <mxGeometry x="640" y="250" width="60" height="30" as="geometry" />
        </mxCell>
        <mxCell id="Ow_2O81sL5NtDQHL0vKZ-21" value="Phiếu thu" style="text;html=1;align=center;verticalAlign=middle;whiteSpace=wrap;rounded=0;" parent="1" vertex="1">
          <mxGeometry x="650" y="170" width="60" height="30" as="geometry" />
        </mxCell>
        <mxCell id="Ow_2O81sL5NtDQHL0vKZ-55" style="edgeStyle=orthogonalEdgeStyle;rounded=0;orthogonalLoop=1;jettySize=auto;html=1;entryX=0.2;entryY=0;entryDx=0;entryDy=0;entryPerimeter=0;" parent="1" source="Ow_2O81sL5NtDQHL0vKZ-22" target="Ow_2O81sL5NtDQHL0vKZ-5" edge="1">
          <mxGeometry relative="1" as="geometry">
            <mxPoint x="360" y="-110" as="targetPoint" />
            <Array as="points">
              <mxPoint x="670" y="-110" />
              <mxPoint x="360" y="-110" />
            </Array>
          </mxGeometry>
        </mxCell>
        <mxCell id="Ow_2O81sL5NtDQHL0vKZ-22" value="Danh sách tiền nhà" style="text;html=1;align=center;verticalAlign=middle;whiteSpace=wrap;rounded=0;" parent="1" vertex="1">
          <mxGeometry x="640" y="-70" width="60" height="30" as="geometry" />
        </mxCell>
        <mxCell id="Ow_2O81sL5NtDQHL0vKZ-28" value="&lt;font style=&quot;font-size: 9px;&quot;&gt;Gửi phiếu thu&lt;/font&gt;" style="text;html=1;align=center;verticalAlign=middle;whiteSpace=wrap;rounded=0;" parent="1" vertex="1">
          <mxGeometry x="230" y="270" width="80" height="30" as="geometry" />
        </mxCell>
        <mxCell id="Ow_2O81sL5NtDQHL0vKZ-31" value="&lt;font style=&quot;font-size: 9px;&quot;&gt;Lưu phiếu thu&lt;/font&gt;" style="text;html=1;align=center;verticalAlign=middle;whiteSpace=wrap;rounded=0;" parent="1" vertex="1">
          <mxGeometry x="470" y="220" width="80" height="30" as="geometry" />
        </mxCell>
        <mxCell id="Ow_2O81sL5NtDQHL0vKZ-35" style="edgeStyle=orthogonalEdgeStyle;rounded=0;orthogonalLoop=1;jettySize=auto;html=1;entryX=0;entryY=0;entryDx=0;entryDy=0;exitX=0.956;exitY=1.004;exitDx=0;exitDy=0;exitPerimeter=0;" parent="1" source="Ow_2O81sL5NtDQHL0vKZ-12" target="Ow_2O81sL5NtDQHL0vKZ-17" edge="1">
          <mxGeometry relative="1" as="geometry">
            <mxPoint x="570" y="200" as="targetPoint" />
            <Array as="points">
              <mxPoint x="492" y="170" />
            </Array>
          </mxGeometry>
        </mxCell>
        <mxCell id="Ow_2O81sL5NtDQHL0vKZ-36" value="&lt;font style=&quot;font-size: 9px;&quot;&gt;Lấy dữ liệu&lt;/font&gt;" style="text;html=1;align=center;verticalAlign=middle;whiteSpace=wrap;rounded=0;" parent="1" vertex="1">
          <mxGeometry x="500" y="140" width="80" height="30" as="geometry" />
        </mxCell>
        <mxCell id="Ow_2O81sL5NtDQHL0vKZ-40" value="Trả dữ liệu" style="text;html=1;align=center;verticalAlign=middle;whiteSpace=wrap;rounded=0;" parent="1" vertex="1">
          <mxGeometry x="390" y="160" width="80" height="30" as="geometry" />
        </mxCell>
        <mxCell id="Ow_2O81sL5NtDQHL0vKZ-41" value="l" style="html=1;dashed=0;whiteSpace=wrap;shape=mxgraph.dfd.dataStoreID;align=left;spacingLeft=3;points=[[0,0],[0.5,0],[1,0],[0,0.5],[1,0.5],[0,1],[0.5,1],[1,1]];" parent="1" vertex="1">
          <mxGeometry x="610" y="40" width="100" height="30" as="geometry" />
        </mxCell>
        <mxCell id="Ow_2O81sL5NtDQHL0vKZ-43" value="&lt;font style=&quot;font-size: 9px;&quot;&gt;Lưu dữ liệu&lt;/font&gt;" style="text;html=1;align=center;verticalAlign=middle;whiteSpace=wrap;rounded=0;" parent="1" vertex="1">
          <mxGeometry x="440" y="60" width="80" height="20" as="geometry" />
        </mxCell>
        <mxCell id="Ow_2O81sL5NtDQHL0vKZ-44" value="Báo cáo" style="text;html=1;align=center;verticalAlign=middle;whiteSpace=wrap;rounded=0;" parent="1" vertex="1">
          <mxGeometry x="640" y="40" width="60" height="30" as="geometry" />
        </mxCell>
        <mxCell id="Ow_2O81sL5NtDQHL0vKZ-48" value="&lt;font style=&quot;font-size: 9px;&quot;&gt;Trả dữ liệu&lt;/font&gt;" style="text;html=1;align=center;verticalAlign=middle;whiteSpace=wrap;rounded=0;" parent="1" vertex="1">
          <mxGeometry x="580" y="110" width="80" height="30" as="geometry" />
        </mxCell>
        <mxCell id="Ow_2O81sL5NtDQHL0vKZ-49" style="edgeStyle=orthogonalEdgeStyle;rounded=0;orthogonalLoop=1;jettySize=auto;html=1;entryX=1;entryY=0;entryDx=0;entryDy=0;" parent="1" source="Ow_2O81sL5NtDQHL0vKZ-7" target="Ow_2O81sL5NtDQHL0vKZ-21" edge="1">
          <mxGeometry relative="1" as="geometry">
            <mxPoint x="590" y="110" as="targetPoint" />
            <Array as="points">
              <mxPoint x="560" y="25" />
              <mxPoint x="560" y="90" />
              <mxPoint x="710" y="90" />
            </Array>
          </mxGeometry>
        </mxCell>
        <mxCell id="Ow_2O81sL5NtDQHL0vKZ-50" value="&lt;font style=&quot;font-size: 9px;&quot;&gt;Kiểm tra&lt;/font&gt;" style="text;html=1;align=center;verticalAlign=middle;whiteSpace=wrap;rounded=0;" parent="1" vertex="1">
          <mxGeometry x="460" width="80" height="30" as="geometry" />
        </mxCell>
        <mxCell id="Ow_2O81sL5NtDQHL0vKZ-52" value="&lt;font style=&quot;font-size: 9px;&quot;&gt;Lưu dữ liệu&lt;/font&gt;" style="text;html=1;align=center;verticalAlign=middle;whiteSpace=wrap;rounded=0;" parent="1" vertex="1">
          <mxGeometry x="480" y="-30" width="80" height="30" as="geometry" />
        </mxCell>
        <mxCell id="Ow_2O81sL5NtDQHL0vKZ-54" value="&lt;font style=&quot;font-size: 9px;&quot;&gt;Kiểm tra&lt;/font&gt;" style="text;html=1;align=center;verticalAlign=middle;whiteSpace=wrap;rounded=0;" parent="1" vertex="1">
          <mxGeometry x="440" y="-90" width="80" height="30" as="geometry" />
        </mxCell>
        <mxCell id="Ow_2O81sL5NtDQHL0vKZ-56" value="&lt;font style=&quot;font-size: 9px;&quot;&gt;Trả dữ liệu&lt;/font&gt;" style="text;html=1;align=center;verticalAlign=middle;whiteSpace=wrap;rounded=0;" parent="1" vertex="1">
          <mxGeometry x="510" y="-140" width="80" height="30" as="geometry" />
        </mxCell>
        <mxCell id="G4VcKfkMpB8U3CiZaw-z-2" style="edgeStyle=orthogonalEdgeStyle;rounded=0;orthogonalLoop=1;jettySize=auto;html=1;entryX=0.5;entryY=1;entryDx=0;entryDy=0;" edge="1" parent="1" source="Ow_2O81sL5NtDQHL0vKZ-14" target="Ow_2O81sL5NtDQHL0vKZ-1">
          <mxGeometry relative="1" as="geometry" />
        </mxCell>
      </root>
    </mxGraphModel>
  </diagram>
</mxfile>
